<svg width="1200" height="900" viewBox="0 0 1200 900" fill="none" xmlns="http://www.w3.org/2000/svg">
  <rect width="1200" height="900" rx="48" fill="#0F172A"/>
  <rect x="72" y="72" width="1056" height="756" rx="40" fill="#111827"/>
  <rect x="130" y="150" width="540" height="540" rx="32" fill="#1E293B"/>
  <path d="M315 320L470 475" stroke="#F8FAFC" stroke-width="52" stroke-linecap="round"/>
  <path d="M500 295L365 430C340 455 340 495 365 520L435 590C460 615 500 615 525 590L660 455" stroke="#38BDF8" stroke-width="52" stroke-linecap="round"/>
  <circle cx="480" cy="340" r="48" fill="#F8FAFC"/>
  <rect x="730" y="250" width="320" height="72" rx="20" fill="#38BDF8"/>
  <rect x="730" y="360" width="250" height="28" rx="14" fill="#334155"/>
  <rect x="730" y="410" width="292" height="28" rx="14" fill="#334155"/>
  <rect x="730" y="460" width="224" height="28" rx="14" fill="#334155"/>
  <text x="730" y="575" fill="#F8FAFC" font-size="82" font-family="Arial, sans-serif" font-weight="700">철물</text>
  <text x="730" y="645" fill="#94A3B8" font-size="38" font-family="Arial, sans-serif">실리콘 · 앙카 · 피스 · 힌지</text>
</svg>
